<svg xmlns="http://www.w3.org/2000/svg" version="1.1" xmlns:xlink="http://www.w3.org/1999/xlink" xmlns:svgjs="http://svgjs.com/svgjs" width="15.18161mm" height="22.856283mm"><svg width="15.18161mm" height="22.856283mm" viewBox="0 0 15.18161 22.856283" version="1.1" id="SvgjsSvg1022" xml:space="preserve" xmlns:xlink="http://www.w3.org/1999/xlink" xmlns="http://www.w3.org/2000/svg" xmlns:svg="http://www.w3.org/2000/svg"><defs id="SvgjsDefs1021"><linearGradient id="SvgjsLinearGradient1020"><stop style="stop-color:#036dfb;stop-opacity:1;" offset="0.42190671" id="SvgjsStop1019"></stop><stop style="stop-color:#1072fb;stop-opacity:1;" offset="0.56288034" id="SvgjsStop1018"></stop><stop style="stop-color:#1675fb;stop-opacity:1;" offset="0.63336718" id="SvgjsStop1017"></stop></linearGradient><linearGradient xlink:href="#linearGradient1904" id="SvgjsLinearGradient1016" x1="167.32054" y1="212.4818" x2="663.26129" y2="212.4818" gradientUnits="userSpaceOnUse" gradientTransform="matrix(0.42146244,0,0,0.4082886,-7.2760053,-26.688584)"></linearGradient><linearGradient id="SvgjsLinearGradient1015"><stop style="stop-color:#0071fb;stop-opacity:1;" offset="0.10750506" id="SvgjsStop1014"></stop><stop style="stop-color:#016ffb;stop-opacity:1;" offset="0.37993854" id="SvgjsStop1013"></stop></linearGradient><linearGradient xlink:href="#linearGradient14516" id="SvgjsLinearGradient1012" x1="69.524612" y1="45.529282" x2="87.973854" y2="45.529282" gradientUnits="userSpaceOnUse" gradientTransform="matrix(1.6952525,0,0,1.6952628,-18.214599,-8.533215)"></linearGradient></defs><g id="SvgjsG1011" style="display:none" transform="translate(-88.437881,-40.576357)"><g id="SvgjsG1010"><text xml:space="preserve" style="font-style:normal;font-variant:normal;font-weight:bold;font-stretch:normal;font-size:61.8273px;font-family:Arial;-inkscape-font-specification:'Arial, Bold';font-variant-ligatures:normal;font-variant-caps:normal;font-variant-numeric:normal;font-variant-east-asian:normal;text-align:center;text-anchor:middle;display:inline;fill:url(#linearGradient14518);fill-opacity:1;stroke-width:0.0772846;stroke-linecap:square;stroke-miterlimit:3;stroke-dasharray:0.618284, 0.0772846;paint-order:markers stroke fill" x="115.99346" y="78.538254" id="SvgjsText1009" transform="scale(1.0309819,0.96994912)" svgjs:data="{&quot;leading&quot;:&quot;1.3&quot;}"><tspan id="SvgjsTspan1008" style="fill:url(#linearGradient14518);fill-opacity:1;stroke-width:0.0772846" x="115.99346" y="78.538254" svgjs:data="{&quot;leading&quot;:&quot;1.3&quot;}">g</tspan></text><path d="m 63.363508,77.509868 0.017,-46.497792 9.24672,-0.03758 0.07516,38.206464 18.21696,0.08612 0.05407,8.16128 z m 28.831744,-33.215488 3.91168,1.90464 3.54304,-2.03776 -0.005,33.294336 -7.26016,-0.04393 z m -1.47456,-8.72448 4.95616,-4.90496 4.874238,4.67968 -4.833278,4.72064 z" style="display:inline;fill:url(#linearGradient1906);fill-opacity:1;stroke-width:0.288273" id="SvgjsPath1007"></path></g></g><g id="SvgjsG1006" transform="matrix(0.09772549,0,0,0.09772548,38.703319,34.264847)" style="display:inline"><rect style="display:inline;fill:none;fill-opacity:1;fill-rule:evenodd;stroke:none;stroke-width:0.676853;stroke-linecap:square;stroke-miterlimit:3;stroke-dasharray:none;stroke-opacity:1;paint-order:markers stroke fill" id="SvgjsRect1005" width="155.34947" height="233.88257" x="-396.04114" y="-350.6235" ry="0" transform="translate(1.9186393e-6)"></rect><path d="m -317.9164,-155.25003 19.24868,-0.522 -21.27142,-21.53242 29.81915,-29.68866 47.40397,50.20972 0.1305,17.71531 -20.78206,20.12956 h -18.10681 z m -28.41627,-52.26507 V -276.06 l 27.89428,23.55517 0.1305,15.04007 z" style="fill:#92c5fd;fill-opacity:1;fill-rule:nonzero;stroke:none;stroke-width:32.6249" id="SvgjsPath1004"></path><path d="m -393.99764,-139.06808 v -17.58482 l 75.68975,-80.81186 -0.1305,-15.04007 28.93827,-23.55517 -0.61987,68.93639 -51.5147,52.00408 23.71829,-0.1305 36.44201,36.31151 h -92.39369 z" style="fill:#0071fb;fill-opacity:1;fill-rule:nonzero;stroke:none;stroke-width:32.6249" id="SvgjsPath1003"></path><path d="m -340.32969,-335.9593 13.99607,-12.75633 12.88684,13.8982 -13.89821,12.85421 z" style="fill:#0071fb;fill-opacity:1;fill-rule:nonzero;stroke:none;stroke-width:32.6249" id="SvgjsPath1002"></path><path d="m -331.1621,-298.24492 13.99607,-12.75634 13.01734,13.89821 -13.89821,12.88682 z" style="fill:#0071fb;fill-opacity:1;fill-rule:nonzero;stroke:none;stroke-width:32.6249" id="SvgjsPath1001"></path><path d="m -306.56293,-322.45259 13.99607,-12.88684 13.01734,13.89821 -13.89821,12.8542 z" style="fill:#92c5fd;fill-opacity:1;fill-rule:nonzero;stroke:none;stroke-width:32.6249" id="SvgjsPath1000"></path></g></svg><style>@media (prefers-color-scheme: light) { :root { filter: none; } }
</style></svg>