<?xml version="1.0" standalone="no"?>
<!DOCTYPE svg PUBLIC "-//W3C//DTD SVG 20010904//EN"
 "http://www.w3.org/TR/2001/REC-SVG-20010904/DTD/svg10.dtd">
<svg version="1.0" xmlns="http://www.w3.org/2000/svg"
 width="225.000000pt" height="225.000000pt" viewBox="0 0 225.000000 225.000000"
 preserveAspectRatio="xMidYMid meet">
<metadata>
Created by potrace 1.14, written by Peter Selinger 2001-2017
</metadata>
<g transform="translate(0.000000,225.000000) scale(0.100000,-0.100000)"
fill="#000000" stroke="none">
<path d="M1072 2127 l-62 -63 33 -34 c19 -19 47 -47 63 -62 l30 -28 62 63 62
63 -63 62 -63 62 -62 -63z"/>
<path d="M1277 1912 l-60 -59 61 -61 c34 -34 65 -62 68 -62 3 0 32 27 65 61
l59 60 -60 60 c-32 32 -62 59 -66 59 -3 0 -33 -26 -67 -58z"/>
<path d="M1073 1707 l-62 -62 33 -35 c18 -19 46 -47 62 -62 l30 -28 61 63 62
62 -63 62 -62 63 -61 -63z"/>
<path d="M1375 1542 c-17 -15 -76 -69 -132 -120 -57 -52 -107 -92 -112 -90 -6
1 -64 47 -130 102 -65 54 -123 99 -127 100 -5 0 -9 -123 -10 -274 0 -221 2
-280 13 -298 16 -25 15 -27 -42 -87 -11 -12 -81 -86 -155 -165 -74 -79 -146
-154 -159 -168 -21 -21 -25 -35 -26 -101 l-1 -76 89 -88 89 -87 466 0 467 1
88 87 87 87 0 75 -1 75 -106 110 c-58 61 -150 155 -204 211 -92 94 -97 101
-82 117 15 15 17 50 18 317 0 165 0 300 0 300 0 0 -14 -12 -30 -28z m-227
-873 c-17 -10 -28 -2 -21 17 4 11 8 12 20 3 11 -10 11 -14 1 -20z"/>
</g>
</svg>
