<svg
   width="192.00052"
   height="144.00002"
   viewBox="0 0 192.00052 144.00002"
   version="1.1"
   id="svg351"
   xmlns="http://www.w3.org/2000/svg">
  <defs
     id="defs348">
    <filter
       style="color-interpolation-filters:sRGB"
       id="filter1905"
       x="-0.0051629076"
       y="-0.095407929"
       width="1.0103248"
       height="1.1694029">
      <feGaussianBlur
         stdDeviation="0.084298622"
         id="feGaussianBlur1907" />
    </filter>
    <filter
       style="color-interpolation-filters:sRGB"
       id="filter2691"
       x="-0.016898371"
       y="-0.26133768"
       width="1.0337967"
       height="1.5226754">
      <feGaussianBlur
         stdDeviation="0.38542414"
         id="feGaussianBlur2693" />
    </filter>
  </defs>
  <g
     id="layer1"
     transform="translate(-304.02372,-529.83788)">
    <g
       id="g565">
      <path
         d="m 402.90321,670.10254 c 36.35488,-7.61143 87.01276,-46.70868 67.75524,-116.23564 -26.33566,6.39051 -50.52919,-1.65292 -70.01214,-20.13433 -20.75369,19.09905 -44.46787,22.75503 -70.24239,12.9731 -23.2854,77.63007 38.51845,117.01571 72.49929,123.39687 z"
         style="display:inline;fill:#f8fcfd;fill-opacity:1;stroke:none;stroke-width:0;stroke-dasharray:none;stroke-opacity:1"
         id="path483-2" />
      <path
         d="m 402.32592,575.65105 0.004,0.0976 0.61022,0.005 -10e-4,6.05371 -0.90789,-0.0181 v 0.0906 l 0.90789,0.0365 -4.7e-4,3.0629 -0.83372,0.0118 -0.004,0.10638 2.9477,-0.0272 0.0126,-0.0963 -0.92768,0.005 0.0187,-3.05587 1.6719,0.0238 c 1.77092,-0.006 2.67366,-1.29578 2.68412,-2.96266 -0.002,-2.04584 -1.6898,-3.24967 -2.85918,-3.2814 l -1.51416,-0.0519 z m 1.81432,0.10329 1.49338,0.0616 c 0.55568,0.0305 1.56454,1.71712 1.53668,3.21414 -0.0261,1.52249 -0.75791,2.77871 -1.26224,2.8088 l -1.76189,-0.0215 z"
         style="fill:#5f3c99;fill-opacity:1;stroke-width:0.0916715"
         id="path304-2-0" />
      <path
         d="m 402.68238,575.64596 0.004,0.0976 0.61022,0.005 -0.001,6.05371 -0.90789,-0.0181 v 0.0906 l 0.90789,0.0365 -4.7e-4,3.0629 -0.83372,0.0118 -0.004,0.10639 2.9477,-0.0272 0.0126,-0.0963 -0.92768,0.005 0.0187,-3.05587 1.6719,0.0238 c 1.77092,-0.006 2.67366,-1.29578 2.68412,-2.96265 -0.002,-2.04585 -1.6898,-3.24967 -2.85918,-3.2814 l -1.51416,-0.0519 z m 1.81431,0.10331 1.49339,0.0616 c 0.55568,0.0305 1.56454,1.71712 1.53668,3.21414 -0.0261,1.52249 -0.75791,2.77871 -1.26224,2.8088 l -1.76189,-0.0215 z"
         style="fill:#f2ed00;fill-opacity:1;stroke-width:0.0916715"
         id="path304-2" />
      <path
         d="m 395.21645,573.09671 0.004,0.0902 0.63771,0.004 -0.002,5.5976 -0.94881,-0.0168 v 0.0838 l 0.94881,0.0338 -4.9e-4,2.83213 -0.8713,0.0109 -0.005,0.0984 3.08054,-0.0252 0.0131,-0.089 -0.96948,0.005 0.0197,-2.82563 1.74724,0.022 c 0.25532,-0.003 0.40394,1.19393 0.39068,2.50774 -0.0258,0.72673 0.91915,0.62297 1.45784,0.58049 0.27677,-0.0415 0.51918,-0.10259 1.09454,-0.50203 -0.82063,0.33001 -1.25695,0.39633 -1.22373,0.0459 0.0449,-0.6106 -0.0355,-1.09639 -0.17672,-1.49716 -0.20469,-0.59089 -0.56302,-1.01391 -1.15759,-1.22765 0.58432,-0.10018 2.38077,-0.76254 2.42009,-2.64677 -0.002,-1.8917 -1.76595,-3.00482 -2.98803,-3.03416 l -1.58238,-0.048 z m 1.89607,0.0955 1.56067,0.0569 c 0.58073,0.0282 1.6341,1.60876 1.61856,2.97197 -0.0811,1.40593 -0.80468,2.56935 -1.33174,2.59717 l -1.84129,-0.0199 z"
         style="fill:#5f3c99;fill-opacity:1;stroke-width:0.0901152"
         id="path304-8" />
      <path
         d="m 395.63977,573.13074 0.004,0.0902 0.63771,0.004 -0.002,5.5976 -0.94881,-0.0168 v 0.0838 l 0.94881,0.0337 -5e-4,2.83213 -0.87129,0.0109 -0.005,0.0984 3.08053,-0.0252 0.0131,-0.089 -0.96948,0.005 0.0197,-2.82563 1.74724,0.022 c 0.25533,-0.003 0.40394,1.19392 0.39068,2.50774 -0.0258,0.72673 0.91916,0.62297 1.45785,0.58049 0.27677,-0.0416 0.51917,-0.10261 1.09453,-0.50204 -0.82063,0.33001 -1.25695,0.39633 -1.22373,0.0459 0.0449,-0.6106 -0.0355,-1.0964 -0.17672,-1.49717 -0.20468,-0.59089 -0.56302,-1.01391 -1.15759,-1.22765 0.58432,-0.10017 2.38078,-0.76254 2.42009,-2.64676 -0.002,-1.8917 -1.76595,-3.00483 -2.98803,-3.03417 l -1.58238,-0.048 z m 1.89606,0.0955 1.56068,0.0569 c 0.58073,0.0282 1.63409,1.60876 1.61856,2.97197 -0.0811,1.40593 -0.80469,2.56935 -1.33175,2.59718 l -1.84129,-0.0199 z"
         style="fill:#f2ed00;fill-opacity:1;stroke-width:0.0901152"
         id="path304" />
      <path
         id="path1092-7"
         style="display:inline;mix-blend-mode:normal;fill:#97999a;fill-opacity:1;stroke-width:0.264583;filter:url(#filter2691)"
         d="m -31.793636,11.982424 c -1.673789,0.0025 -3.43602,0.138669 -4.674133,0.342614 -0.588593,0.129033 -2.599783,0.893222 -3.744991,1.472262 -0.234026,0.09029 0.181599,0.281425 0.495577,0.270784 0.763421,-0.03047 0.331992,0.561831 0.938961,0.517281 0.374946,-0.09633 0.941379,-0.464809 1.309481,-0.523999 1.319868,0.05689 1.310895,0.345532 1.796272,0.251148 0.143341,-0.05643 0.319449,-0.248475 0.418579,-0.550871 0.0774,-0.226204 0.273603,-0.254217 0.280603,0.04341 -0.0046,0.168492 0.121532,0.629349 0.235128,0.65319 0.243268,0.06522 0.894718,-0.04936 1.442289,-0.253731 0.426425,-0.172089 0.757636,-0.489322 1.152901,-0.981335 0.191907,0.388793 0.305921,0.535284 0.503329,0.692464 -0.590639,0.147041 -0.643748,0.424422 -0.823206,0.608231 -0.181138,0.2377 0.514515,-0.28111 0.600997,0.255799 0.04264,0.235936 0.259794,-0.163515 0.584461,-0.345716 1.100448,-0.645449 2.258282,-0.628056 4.329451,0.128158 -1.549738,-1.158773 -1.900891,-1.651762 -2.675806,-2.493905 -0.666716,-0.06029 -1.40908,-0.08693 -2.169893,-0.08578 z m 38.5392486,0.721919 c -0.8602381,-0.002 -1.7194121,0.03152 -2.503723,0.10387 -1.0211488,0.922599 -1.3853004,1.164517 -2.9347045,2.413806 2.0303986,-0.756214 3.2460145,-0.763788 4.3248004,-0.118339 0.3182758,0.182201 0.5312907,0.581651 0.5730917,0.345715 0.08478,-0.536908 0.7666845,-0.0181 0.5891113,-0.255798 -0.1759253,-0.18381 -0.228174,-0.461191 -0.8071859,-0.608232 0.1935219,-0.157179 0.3053807,-0.30367 0.4935099,-0.692464 0.3874849,0.492014 0.712133,0.809247 1.1301636,0.981336 0.5367931,0.204366 1.1753881,0.318951 1.4138671,0.253731 0.11136,-0.02384 0.234977,-0.484698 0.230477,-0.65319 0.0069,-0.297626 0.199555,-0.269612 0.275435,-0.04341 0.09718,0.302395 0.269792,0.49444 0.410311,0.55087 0.4758238,0.09438 0.4672448,-0.194257 1.7611328,-0.251147 0.360855,0.05919 0.91556,0.427669 1.283126,0.523999 0.595021,0.04455 0.172479,-0.547751 0.920874,-0.517281 0.307795,0.01064 0.715177,-0.180495 0.485758,-0.270785 -1.122666,-0.579039 -3.094604,-1.343228 -3.67161,-1.472261 C 9.6166452,12.80936 8.1793432,12.707607 6.7456126,12.704343 Z"
         transform="matrix(3.392829,0,0,4.4974379,443.82956,576.11638)" />
      <path
         id="path1092"
         style="fill:#f8fcfd;fill-opacity:1;stroke-width:1.01898"
         d="m 336.75532,628.28267 c -5.59891,0.011 -11.49367,0.61487 -15.63523,1.51919 -1.96888,0.57214 -8.69642,3.96064 -12.5272,6.52817 -0.78283,0.40036 0.60746,1.24787 1.65773,1.20069 2.55369,-0.13511 1.11053,2.49122 3.14088,2.29368 1.25421,-0.42714 3.14896,-2.06102 4.38028,-2.32347 4.41504,0.25225 4.38502,1.53212 6.00863,1.11362 0.47949,-0.25022 1.06858,-1.10177 1.40017,-2.44263 0.25891,-1.00301 0.91522,-1.12722 0.93863,0.19249 -0.0154,0.74711 0.40654,2.7906 0.78652,2.89631 0.81375,0.2892 2.99288,-0.21886 4.82454,-1.12507 1.42641,-0.76306 2.53433,-2.1697 3.85651,-4.35134 0.64194,1.72395 1.02333,2.3735 1.68367,3.07046 -1.97572,0.65199 -2.15338,1.88193 -2.75367,2.69696 -0.60592,1.05399 1.72108,-1.24647 2.01037,1.13424 0.14262,1.04617 0.86902,-0.72504 1.95505,-1.53294 3.68106,-2.86199 7.55408,-2.78487 14.48225,0.56826 -5.18396,-5.13812 -6.35858,-7.32409 -8.95072,-11.05824 -2.2302,-0.26734 -4.71345,-0.38546 -7.25841,-0.38036 z m 128.9159,3.20107 c -2.87754,-0.009 -5.75152,0.13976 -8.37509,0.46057 -3.4158,4.0909 -4.6339,5.1636 -9.81674,10.70308 6.79179,-3.35314 10.85809,-3.38672 14.46669,-0.52473 1.06465,0.8079 1.7772,2.57911 1.91702,1.53294 0.28359,-2.38071 2.5646,-0.0803 1.97061,-1.13424 -0.58848,-0.81503 -0.76324,-2.04497 -2.70008,-2.69696 0.64734,-0.69695 1.02152,-1.34651 1.65082,-3.07047 1.29616,2.18165 2.38213,3.5883 3.78046,4.35136 1.7956,0.90618 3.93173,1.41426 4.72946,1.12507 0.37251,-0.10571 0.78602,-2.14921 0.77096,-2.89632 0.023,-1.31971 0.66752,-1.19549 0.92134,-0.19248 0.32508,1.34085 0.90247,2.1924 1.37252,2.44261 1.59166,0.4185 1.56296,-0.86135 5.89109,-1.11361 1.20708,0.26246 3.06259,1.89633 4.29212,2.32347 1.99039,0.19754 0.57695,-2.42879 3.08037,-2.29368 1.0296,0.0472 2.39231,-0.80034 1.6249,-1.20069 -3.75538,-2.56752 -10.35162,-5.95602 -12.28175,-6.52817 -3.69094,-0.82209 -8.49878,-1.27328 -13.2947,-1.28775 z" />
      <path
         d="m 402.32397,662.1229 c 26.59506,-6.18439 75.50717,-36.98698 61.76696,-100.09225 -25.12455,4.24995 -43.46436,-0.67184 -62.94731,-19.15325 -20.75369,19.09905 -39.32162,20.77493 -64.0196,15.27411 -13.59648,69.60297 39.02967,97.82982 65.19995,103.97139 z"
         style="fill:none;stroke:#6f687a;stroke-width:1.01898;stroke-dasharray:none;stroke-opacity:1"
         id="path483" />
      <path
         d="m 401.85226,590.43738 c 3.88947,-1.22945 11.12149,-7.35298 9.11201,-19.89827 -3.67442,0.84489 -6.35658,-0.13355 -9.20592,-3.80765 -3.03518,3.79688 -5.7507,4.13004 -9.36274,3.03648 -1.98845,13.83702 5.6293,19.4485 9.45665,20.66944 z"
         style="fill:none;stroke:#5f3c99;stroke-width:0.535797;stroke-dasharray:none;stroke-opacity:1"
         id="path483-3" />
      <path
         d="m 402.7465,590.45412 c 3.88947,-1.22945 11.12149,-7.35298 9.11202,-19.89827 -3.67442,0.84489 -6.35658,-0.13355 -9.20592,-3.80765 -3.03519,3.79688 -5.75071,4.13004 -9.36274,3.03648 -1.98846,13.83702 5.62929,19.4485 9.45664,20.66944 z"
         style="fill:none;stroke:#f2ed00;stroke-width:0.535797;stroke-dasharray:none;stroke-opacity:1"
         id="path483-3-9" />
      <path
         id="path389"
         style="fill:#590999;fill-opacity:1;stroke-width:1.01898"
         d="m 401.26815,529.83788 c -16.08206,14.01749 -36.45251,26.79327 -59.84377,19.46466 0.71894,-6.02161 -2.87145,-8.10343 -6.12645,-8.68846 -4.37931,-0.30689 -6.59971,4.92756 -7.69717,8.75986 -13.20733,48.58249 6.25592,74.73582 13.16576,83.78438 15.66533,21.4933 37.8062,31.73034 61.58592,40.67957 27.43616,-11.79341 42.45796,-19.36019 58.67161,-37.91467 6.82538,-7.99656 23.20997,-37.50486 11.79646,-82.6875 -1.01401,-3.65979 -2.29305,-7.80031 -6.70929,-7.45529 -3.9366,0.43214 -5.86021,3.56713 -5.4386,8.07837 -29.41794,4.1038 -45.26521,-10.14551 -59.40447,-24.02092 z m -0.17572,6.44495 c 20.95199,21.32447 43.59908,26.12684 67.86664,20.35818 10.25375,37.44403 -3.25556,66.11794 -9.43074,74.03149 -13.9809,18.32602 -37.10553,30.57656 -56.99161,37.88437 -18.84119,-6.37684 -47.17334,-19.24072 -62.02306,-43.34711 -3.85829,-7.08705 -21.15397,-27.15036 -8.83931,-75.09808 19.12597,10.27589 46.88851,7.59509 69.41808,-13.82885 z m -48.41587,36.65553 0.0171,0.48029 2.64429,0.0238 -0.006,29.79087 -3.9343,-0.0887 v 0.44568 l 3.9343,0.17956 -0.002,15.07284 -3.61287,0.0584 -0.0194,0.52356 12.77361,-0.13415 0.0536,-0.4738 -4.02002,0.0259 0.0814,-15.03822 7.24502,0.11683 c 1.05867,-0.0161 1.67496,6.35418 1.62,13.34639 -0.1052,3.86774 3.81132,3.31551 6.04502,3.08943 1.14752,-0.22113 2.15281,-0.54603 4.53859,-2.67188 -3.4028,1.75636 -5.21202,2.1093 -5.0743,0.24447 0.18638,-3.24966 -0.14706,-5.8351 -0.73286,-7.96803 -0.84869,-3.14476 -2.33459,-5.39611 -4.80002,-6.53365 2.42289,-0.53306 9.87203,-4.0583 10.03503,-14.0863 -0.007,-10.06778 -7.32262,-15.99193 -12.39003,-16.14808 l -6.56146,-0.25529 z m 7.86217,0.50842 6.47145,0.30288 c 2.40802,0.14981 6.21659,10.80763 6.15216,15.81707 -4.6e-4,6.90292 -2.77739,13.67427 -4.96287,13.82235 l -7.63502,-0.10601 z m 79.69097,3.87908 -0.004,0.29207 2.11072,-0.0109 -0.03,43.9637 -2.46643,-0.009 0.006,0.35481 h 10.39288 l -0.009,-0.35048 -2.90358,-0.0303 -0.0107,-44.20817 z m -41.05942,26.18438 -0.004,0.34832 2.61858,0.0325 0.14999,14.05817 c 0.0284,2.33686 2.31973,3.265 3.42429,3.14568 2.05325,-0.17635 4.45395,-0.48213 6.78217,-1.19207 l 0.009,7.39904 c -0.0691,4.13283 -7.95143,1.98179 -9.42646,-0.51058 l -0.77358,1.88654 c 2.89779,1.43072 7.71297,1.80359 10.22575,0.52356 0.50636,-0.34054 4.27272,-1.97526 4.25573,-4.22308 l 0.0171,-21.46803 -7.60288,0.002 0.015,0.31587 3.34286,0.0238 -0.0514,14.35024 c -0.016,1.6286 -5.13887,3.43902 -5.71073,1.05577 l -0.0149,-15.74785 z m -8.53288,0.2012 c -3.23395,0.14712 -7.29405,2.60401 -7.56003,8.46995 -0.0677,8.07814 4.9516,8.17777 7.54503,8.21899 3.19409,-0.1206 6.97359,-2.62813 7.13145,-8.33581 10e-4,-5.48519 -4.10053,-8.36158 -7.11645,-8.35313 z m 38.59512,0.27043 c -1.57623,0.0287 -3.19796,0.15186 -5.71502,1.91467 l -0.0536,2.61562 c 1.37796,-2.2922 2.33082,-3.12958 3.31072,-3.57836 2.28173,-0.91624 3.76287,-0.28775 3.76287,-0.28775 0.27415,2.0236 0.58837,5.97771 0.18857,5.84568 -2.28713,-0.80683 -3.76345,-0.83198 -5.78145,-0.093 -2.99033,1.07047 -4.00984,3.7605 -4.02429,5.88462 -0.005,4.15318 3.1339,4.98398 4.88358,5.8262 1.00743,0.54013 3.87018,0.40692 5.12145,-1.98606 0.16237,3.71485 5.21883,3.07531 7.21074,-0.48029 l -0.35358,-0.51057 c -1.89247,2.6718 -2.99715,2.52895 -2.97858,1.0774 l 0.165,-9.7399 c -0.0497,-5.06629 -3.08161,-6.43236 -5.73644,-6.48822 z m -38.57369,0.10168 c 1.60523,0.0337 2.3766,0.41848 2.54786,2.15914 0.35886,3.3838 0.70595,6.56646 -0.0107,11.77356 -0.1251,1.06136 -0.93415,1.89161 -2.61644,1.93846 -1.86994,0.0154 -2.67784,-0.55881 -2.82215,-1.70697 -0.87264,-5.36751 -0.72741,-7.63404 -0.13072,-11.98991 0.13173,-1.36689 1.04677,-2.13715 3.03216,-2.17428 z m 37.0694,6.12693 c 1.35263,-1.2e-4 3.07379,0.84182 3.06858,1.42572 l 0.105,7.88149 c 0.0343,1.42779 -3.85249,3.36236 -4.95216,1.70048 -0.18541,-3.39178 -0.23795,-6.34763 0.19286,-9.86106 0.0946,-0.84221 0.77414,-1.14656 1.58571,-1.14663 z" />
      <path
         id="path1092-7-4"
         style="display:inline;fill:none;stroke:#f2ed00;stroke-width:0.130995;stroke-opacity:1;filter:url(#filter1905)"
         d="m -33.240976,11.819355 c -0.04148,-4.3e-5 -0.07636,0.0014 -0.10387,0.0041 -0.51208,0.04379 -3.025085,0.843746 -3.756359,1.040246 -0.149443,0.03064 -0.174885,0.13414 0.0801,0.19327 0.278596,0.04759 0.286744,0.08903 0.56534,0.0739 0.303,-0.04717 0.419688,-0.148375 0.654741,-0.168465 0.388694,0.01448 1.513617,-0.321088 1.968872,-0.362768 0.146022,-0.01915 0.265372,-0.273584 0.328662,-0.376205 0.04943,-0.0092 0.335731,-0.02845 0.340031,0.111621 -0.0029,0.09096 1.586484,0.162432 1.731677,0.185002 0.155341,0.02212 -0.09722,-0.338974 0.279681,-0.417984 0.04652,-0.0098 0.09762,-0.02101 0.148312,-0.03256 -1.196023,-0.171844 -1.850848,-0.249798 -2.237185,-0.250192 z m 2.237185,0.250192 c 0.302569,0.04347 0.619405,0.09053 0.944645,0.140043 0.0948,-0.05229 0.211513,-0.09798 0.357601,-0.117305 -0.235043,0.0095 -0.688728,-0.205214 -0.702283,-0.274402 -0.12458,0.128521 -0.373706,0.200137 -0.599963,0.251664 z m 0.944645,0.140043 c -0.149949,0.08271 -0.245537,0.18193 -0.315743,0.220142 -0.115666,0.08081 0.50818,-0.04763 0.654224,0.07183 0.09989,0.06558 1.39285,0.414998 1.916678,0.415995 0.502887,-0.0018 5.155684,1.342172 7.599019,2.441712 -1.348847,-0.964457 -2.890357,-1.802399 -3.40806,-1.971973 -0.547687,-0.19635 -3.777452,-0.771413 -6.446118,-1.177706 z m 40.813528,0.375171 c -0.414545,0.0017 -1.4082247,0.111444 -2.6375651,0.272852 0.176509,0.183262 0.3025973,0.409688 0.4687053,0.439249 0.4362848,0.07721 0.6299541,0.105858 0.8097696,0.08423 0.4240876,-0.02205 1.2715292,0.05241 1.2681392,-0.292489 0.0051,-0.136879 0.336563,-0.118027 0.393775,-0.109037 0.07327,0.100281 0.211307,0.348708 0.380338,0.367419 0.526986,0.04073 1.101905,0.266848 1.551844,0.252698 0.272089,0.01963 0.407351,0.119275 0.758093,0.165365 0.322491,0.01478 0.332248,-0.02637 0.65474,-0.07286 0.29516,-0.05779 0.265485,-0.158677 0.0925,-0.188619 -0.846496,-0.19202 -3.028718,-0.8724 -3.621484,-0.91519 -0.03184,-0.0027 -0.07153,-0.0038 -0.118856,-0.0036 z m -2.6375651,0.272852 c -0.136082,-0.141289 -0.3021853,-0.256955 -0.5400187,-0.237195 -0.3570448,0.03916 -0.8250156,0.248978 -1.0970906,0.239778 0.1712877,0.01913 0.3335147,0.08234 0.4759399,0.155547 0.4030238,-0.05656 0.7922886,-0.109698 1.1611694,-0.15813 z m -1.1611694,0.15813 c -3.0074005,0.42204 -6.71034379,1.029031 -7.35355601,1.223697 -0.53341839,0.165707 -1.06636759,0.345269 -2.62774649,1.009758 1.4453303,-0.268338 7.785842,-1.49834 8.3679644,-1.49655 0.1453623,-9.74e-4 1.2140079,-0.314699 1.3296345,-0.378788 0.1690564,-0.116735 0.8909519,0.0086 0.7570597,-0.07028 C 7.3483986,13.26654 7.176236,13.12913 6.9556475,13.015743 Z"
         transform="matrix(3.3450549,0,0,4.4341099,439.33765,577.72545)" />
      <text
         xml:space="preserve"
         transform="matrix(1.0196579,0,0,1.2258608,370.45321,646.14225)"
         id="text1518"
         style="font-style:normal;font-variant:normal;font-weight:bold;font-stretch:normal;font-size:16px;font-family:'Times New Roman';-inkscape-font-specification:'Times New Roman, Bold';font-variant-ligatures:normal;font-variant-caps:normal;font-variant-numeric:normal;font-variant-east-asian:normal;text-align:center;white-space:pre;shape-inside:url(#rect1520);display:inline;fill:#f2ed00;fill-opacity:1;stroke:none;stroke-width:0;stroke-linecap:square;stroke-miterlimit:3;stroke-dasharray:none;stroke-opacity:1;paint-order:markers stroke fill"><tspan
           x="0"
           y="0"
           id="tspan590">PASTRY</tspan></text>
    </g>
  </g>
</svg>
